<svg width="35" height="35" viewBox="0 0 35 35" fill="none" xmlns="http://www.w3.org/2000/svg">
<g clip-path="url(#clip0_1234_3)">
<path d="M14.4638 17.4966C14.4638 10.4938 20.1451 4.81482 27.1506 4.81482C28.0837 4.81482 28.9894 4.92455 29.8677 5.1166C26.7046 1.95473 22.3339 0 17.5034 0C7.83572 0 0 7.83265 0 17.4966C0 27.1605 7.83572 35 17.5034 35C22.3339 35 26.7046 33.0453 29.8677 29.8834C28.9894 30.0754 28.0837 30.1852 27.1506 30.1852C20.1451 30.1783 14.4638 24.5062 14.4638 17.4966Z" fill="white"/>
<path d="M32.6955 23.0428C35.7582 19.9813 35.7582 15.0177 32.6955 11.9562C29.6329 8.89471 24.6673 8.89471 21.6046 11.9562C18.5419 15.0177 18.5419 19.9813 21.6046 23.0428C24.6673 26.1043 29.6329 26.1043 32.6955 23.0428Z" fill="white"/>
</g>
<defs>
<clipPath id="clip0_1234_3">
<rect width="35" height="35" fill="white"/>
</clipPath>
</defs>
</svg>
